<?xml version="1.0" standalone="no"?><!DOCTYPE svg PUBLIC "-//W3C//DTD SVG 1.1//EN" "http://www.w3.org/Graphics/SVG/1.1/DTD/svg11.dtd"><svg t="1613643506008" class="icon" viewBox="0 0 1024 1024" version="1.1" xmlns="http://www.w3.org/2000/svg" p-id="986" xmlns:xlink="http://www.w3.org/1999/xlink" width="200" height="200"><defs><style type="text/css"></style></defs><path d="M512 1024C229.228475 1024 0 794.771525 0 512S229.228475 0 512 0s512 229.228475 512 512-229.228475 512-512 512z m0-43.389831c258.807322 0 468.610169-209.802847 468.610169-468.610169S770.807322 43.389831 512 43.389831 43.389831 253.192678 43.389831 512s209.802847 468.610169 468.610169 468.610169z" fill="#334966" p-id="987"></path><path d="M212.744678 712.426305C174.296949 655.130034 151.864407 586.183593 151.864407 512c0-198.898983 161.23661-360.135593 360.135593-360.135593 75.055729 0 144.748475 22.961898 202.443932 62.242712A69.098305 69.098305 0 0 1 750.644068 203.932203c38.343593 0 69.423729 31.080136 69.423729 69.423729 0 13.264271-3.718508 25.660746-10.174916 36.200136C849.173695 367.251525 872.135593 436.944271 872.135593 512c0 198.898983-161.23661 360.135593-360.135593 360.135593-76.552678 0-147.525424-23.886102-205.876068-64.607457A69.12 69.12 0 0 1 273.355932 815.728814c-38.343593 0-69.423729-31.080136-69.423729-69.423729 0-12.301017 3.197831-23.855729 8.812475-33.87878z m32.472949-29.604881A69.180746 69.180746 0 0 1 273.355932 676.881356c38.343593 0 69.423729 31.080136 69.423729 69.423729 0 10.465627-2.317017 20.39322-6.465085 29.292474C386.590373 809.176949 447.010712 828.745763 512 828.745763c174.93478 0 316.745763-141.810983 316.745763-316.745763 0-64.360136-19.195661-124.242441-52.176271-174.223186A69.232814 69.232814 0 0 1 750.644068 342.779661c-38.343593 0-69.423729-31.080136-69.423729-69.423729 0-9.163932 1.778983-17.915661 5.002847-25.925424C636.238102 214.454237 576.360136 195.254237 512 195.254237c-174.93478 0-316.745763 141.810983-316.745763 316.745763 0 62.906576 18.340881 121.534915 49.96339 170.821424zM750.644068 312.40678a39.050847 39.050847 0 1 0 0-78.101695 39.050847 39.050847 0 0 0 0 78.101695zM273.355932 785.355932a39.050847 39.050847 0 1 0 0-78.101695 39.050847 39.050847 0 0 0 0 78.101695z" fill="#334966" p-id="988"></path><path d="M512 512m-173.559322 0a173.559322 173.559322 0 1 0 347.118644 0 173.559322 173.559322 0 1 0-347.118644 0Z" fill="#00A4FF" p-id="989"></path><path d="M169.220339 164.881356m-86.779661 0a86.779661 86.779661 0 1 0 173.559322 0 86.779661 86.779661 0 1 0-173.559322 0Z" fill="#00A4FF" p-id="990"></path><path d="M169.220339 164.881356m-52.067797 0a52.067797 52.067797 0 1 0 104.135594 0 52.067797 52.067797 0 1 0-104.135594 0Z" fill="#FFFFFF" p-id="991"></path><path d="M846.101695 854.779661m-86.779661 0a86.779661 86.779661 0 1 0 173.559322 0 86.779661 86.779661 0 1 0-173.559322 0Z" fill="#00A4FF" p-id="992"></path><path d="M846.101695 854.779661m-52.067797 0a52.067797 52.067797 0 1 0 104.135594 0 52.067797 52.067797 0 1 0-104.135594 0Z" fill="#FFFFFF" p-id="993"></path></svg>